<?xml version="1.0" encoding="UTF-8"?>
<svg xmlns="http://www.w3.org/2000/svg" width="1920" height="1080" viewBox="0 0 1920 1080">
  
    
  
  <defs>
    <linearGradient id="bg" x1="0" x2="1" y1="0" y2="1">
      <stop offset="0" stop-color="#050814"/>
      <stop offset="0.48" stop-color="#0d1529"/>
      <stop offset="1" stop-color="#030610"/>
    </linearGradient>
    <radialGradient id="homeGlow" cx="17%" cy="28%" r="58%">
      <stop offset="0" stop-color="#3c3b6e" stop-opacity="0.58"/>
      <stop offset="1" stop-color="#3c3b6e" stop-opacity="0"/>
    </radialGradient>
    <radialGradient id="awayGlow" cx="86%" cy="20%" r="58%">
      <stop offset="0" stop-color="#ffcd00" stop-opacity="0.56"/>
      <stop offset="1" stop-color="#ffcd00" stop-opacity="0"/>
    </radialGradient>
  </defs>
  <rect width="1920" height="1080" fill="url(#bg)"/>
  <rect width="1920" height="1080" fill="url(#homeGlow)"/>
  <rect width="1920" height="1080" fill="url(#awayGlow)"/>
  <g opacity="0.09" stroke="#ffffff" stroke-width="2">
    <path d="M0 0 V1080"/><path d="M64 0 V1080"/><path d="M128 0 V1080"/><path d="M192 0 V1080"/><path d="M256 0 V1080"/><path d="M320 0 V1080"/><path d="M384 0 V1080"/><path d="M448 0 V1080"/><path d="M512 0 V1080"/><path d="M576 0 V1080"/><path d="M640 0 V1080"/><path d="M704 0 V1080"/><path d="M768 0 V1080"/><path d="M832 0 V1080"/><path d="M896 0 V1080"/><path d="M960 0 V1080"/><path d="M1024 0 V1080"/><path d="M1088 0 V1080"/><path d="M1152 0 V1080"/><path d="M1216 0 V1080"/><path d="M1280 0 V1080"/><path d="M1344 0 V1080"/><path d="M1408 0 V1080"/><path d="M1472 0 V1080"/><path d="M1536 0 V1080"/><path d="M1600 0 V1080"/><path d="M1664 0 V1080"/><path d="M1728 0 V1080"/><path d="M1792 0 V1080"/><path d="M1856 0 V1080"/><path d="M1920 0 V1080"/>
    <path d="M0 0 H1920"/><path d="M0 64 H1920"/><path d="M0 128 H1920"/><path d="M0 192 H1920"/><path d="M0 256 H1920"/><path d="M0 320 H1920"/><path d="M0 384 H1920"/><path d="M0 448 H1920"/><path d="M0 512 H1920"/><path d="M0 576 H1920"/><path d="M0 640 H1920"/><path d="M0 704 H1920"/><path d="M0 768 H1920"/><path d="M0 832 H1920"/><path d="M0 896 H1920"/><path d="M0 960 H1920"/><path d="M0 1024 H1920"/><path d="M0 1088 H1920"/>
  </g>
  <g opacity="0.16" stroke="#ffffff" stroke-width="4">
    <path d="M-180 980 L740 60"/>
    <path d="M-40 1088 L870 178"/>
    <path d="M1060 1120 L1940 240"/>
    <path d="M1190 1140 L2040 290"/>
  </g>
  <rect x="44" y="44" width="1832" height="992" fill="none" stroke="#ffffff" stroke-opacity="0.12"/>
    
  <g>
    <rect x="90" y="150" width="850" height="560" fill="#0d4a3f" stroke="#ffffff" stroke-opacity="0.34" stroke-width="3"/>
    <g opacity="0.22">
      <rect x="90" y="150" width="121.42857142857143" height="560" fill="#ffffff" opacity="0.08"/><rect x="211.42857142857144" y="150" width="121.42857142857143" height="560" fill="#21d4a3" opacity="0.22"/><rect x="332.8571428571429" y="150" width="121.42857142857143" height="560" fill="#ffffff" opacity="0.08"/><rect x="454.2857142857143" y="150" width="121.42857142857143" height="560" fill="#21d4a3" opacity="0.22"/><rect x="575.7142857142858" y="150" width="121.42857142857143" height="560" fill="#ffffff" opacity="0.08"/><rect x="697.1428571428571" y="150" width="121.42857142857143" height="560" fill="#21d4a3" opacity="0.22"/><rect x="818.5714285714286" y="150" width="121.42857142857143" height="560" fill="#ffffff" opacity="0.08"/>
    </g>
    <path d="M515 150 V710" stroke="#ffffff" stroke-opacity="0.38" stroke-width="3"/>
    <circle cx="515" cy="430" r="76" fill="none" stroke="#ffffff" stroke-opacity="0.38" stroke-width="3"/>
    <rect x="90" y="290" width="127.5" height="280" fill="none" stroke="#ffffff" stroke-opacity="0.35" stroke-width="3"/>
    <rect x="812.5" y="290" width="127.5" height="280" fill="none" stroke="#ffffff" stroke-opacity="0.35" stroke-width="3"/>
    <path d="M240 310 C420 275, 600 270, 765 320" stroke="#ffbf3f" stroke-opacity="0.75" stroke-width="8" fill="none"/>
    <path d="M260 490 C440 435, 630 480, 780 420" stroke="#21d4a3" stroke-opacity="0.7" stroke-width="8" fill="none"/>
    <circle cx="300" cy="315" r="20" fill="#3c3b6e" stroke="#ffffff" stroke-width="6"/><circle cx="445" cy="425" r="20" fill="#3c3b6e" stroke="#ffffff" stroke-width="6"/><circle cx="560" cy="340" r="20" fill="#3c3b6e" stroke="#ffffff" stroke-width="6"/><circle cx="710" cy="470" r="20" fill="#ffcd00" stroke="#ffffff" stroke-width="6"/><circle cx="795" cy="330" r="20" fill="#ffcd00" stroke="#ffffff" stroke-width="6"/><circle cx="625" cy="435" r="20" fill="#ffcd00" stroke="#ffffff" stroke-width="6"/>
    <circle cx="590" cy="402" r="13" fill="#ffffff"/>
  </g>
    <rect x="1040" y="150" width="720" height="560" fill="#000000" opacity="0.38" stroke="#ffffff" stroke-opacity="0.16"/>
    <text x="1090" y="242" fill="#21d4a3" font-family="Arial Black, Arial, sans-serif" font-size="34" font-weight="900">GAME PULSE</text>
    <text x="1090" y="328" fill="#ffffff" font-family="Arial Black, Arial, sans-serif" font-size="42" font-weight="900">USA can use tempo and crowd</text>
<text x="1090" y="375.04" fill="#ffffff" font-family="Arial Black, Arial, sans-serif" font-size="42" font-weight="900">energy; Australia need</text>
<text x="1090" y="422.08000000000004" fill="#ffffff" font-family="Arial Black, Arial, sans-serif" font-size="42" font-weight="900">compact defending and fast</text>
<text x="1090" y="469.12" fill="#ffffff" font-family="Arial Black, Arial, sans-serif" font-size="42" font-weight="900">second balls</text>
    <rect x="1090" y="760" width="520" height="74" fill="#ffbf3f"/>
    <text x="1350" y="812" fill="#06130f" font-family="Arial Black, Arial, sans-serif" font-size="35" font-weight="900" text-anchor="middle">SECOND SCREEN LIVE</text>
    <text x="90" y="978" fill="#ffffff" font-family="Arial Black, Arial, sans-serif" font-size="44" font-weight="900">OPEN THE OFFICIAL BROADCAST + JOIN OUR ROOM</text>
</svg>
