<?xml version="1.0" encoding="UTF-8"?>
<svg xmlns="http://www.w3.org/2000/svg" width="1920" height="1080" viewBox="0 0 1920 1080">
  
    
  
  <defs>
    <linearGradient id="bg" x1="0" x2="1" y1="0" y2="1">
      <stop offset="0" stop-color="#050814"/>
      <stop offset="0.48" stop-color="#0d1529"/>
      <stop offset="1" stop-color="#030610"/>
    </linearGradient>
    <radialGradient id="homeGlow" cx="17%" cy="28%" r="58%">
      <stop offset="0" stop-color="#3c3b6e" stop-opacity="0.58"/>
      <stop offset="1" stop-color="#3c3b6e" stop-opacity="0"/>
    </radialGradient>
    <radialGradient id="awayGlow" cx="86%" cy="20%" r="58%">
      <stop offset="0" stop-color="#ffcd00" stop-opacity="0.56"/>
      <stop offset="1" stop-color="#ffcd00" stop-opacity="0"/>
    </radialGradient>
  </defs>
  <rect width="1920" height="1080" fill="url(#bg)"/>
  <rect width="1920" height="1080" fill="url(#homeGlow)"/>
  <rect width="1920" height="1080" fill="url(#awayGlow)"/>
  <g opacity="0.09" stroke="#ffffff" stroke-width="2">
    <path d="M0 0 V1080"/><path d="M64 0 V1080"/><path d="M128 0 V1080"/><path d="M192 0 V1080"/><path d="M256 0 V1080"/><path d="M320 0 V1080"/><path d="M384 0 V1080"/><path d="M448 0 V1080"/><path d="M512 0 V1080"/><path d="M576 0 V1080"/><path d="M640 0 V1080"/><path d="M704 0 V1080"/><path d="M768 0 V1080"/><path d="M832 0 V1080"/><path d="M896 0 V1080"/><path d="M960 0 V1080"/><path d="M1024 0 V1080"/><path d="M1088 0 V1080"/><path d="M1152 0 V1080"/><path d="M1216 0 V1080"/><path d="M1280 0 V1080"/><path d="M1344 0 V1080"/><path d="M1408 0 V1080"/><path d="M1472 0 V1080"/><path d="M1536 0 V1080"/><path d="M1600 0 V1080"/><path d="M1664 0 V1080"/><path d="M1728 0 V1080"/><path d="M1792 0 V1080"/><path d="M1856 0 V1080"/><path d="M1920 0 V1080"/>
    <path d="M0 0 H1920"/><path d="M0 64 H1920"/><path d="M0 128 H1920"/><path d="M0 192 H1920"/><path d="M0 256 H1920"/><path d="M0 320 H1920"/><path d="M0 384 H1920"/><path d="M0 448 H1920"/><path d="M0 512 H1920"/><path d="M0 576 H1920"/><path d="M0 640 H1920"/><path d="M0 704 H1920"/><path d="M0 768 H1920"/><path d="M0 832 H1920"/><path d="M0 896 H1920"/><path d="M0 960 H1920"/><path d="M0 1024 H1920"/><path d="M0 1088 H1920"/>
  </g>
  <g opacity="0.16" stroke="#ffffff" stroke-width="4">
    <path d="M-180 980 L740 60"/>
    <path d="M-40 1088 L870 178"/>
    <path d="M1060 1120 L1940 240"/>
    <path d="M1190 1140 L2040 290"/>
  </g>
  <rect x="44" y="44" width="1832" height="992" fill="none" stroke="#ffffff" stroke-opacity="0.12"/>
    <text x="80" y="150" fill="#ffbf3f" font-family="Arial Black, Arial, sans-serif" font-size="46" font-weight="900">CHAT MISSION</text>
    <text x="80" y="265" fill="#ffffff" font-family="Arial Black, Arial, sans-serif" font-size="82" font-weight="900">Late-night crew: country +</text>
<text x="80" y="356.84000000000003" fill="#ffffff" font-family="Arial Black, Arial, sans-serif" font-size="82" font-weight="900">USA vs Australia score</text>
<text x="80" y="448.68" fill="#ffffff" font-family="Arial Black, Arial, sans-serif" font-size="82" font-weight="900">prediction</text>
    <rect x="80" y="675" width="880" height="128" fill="#21d4a3"/>
    <text x="520" y="758" fill="#06130f" font-family="Arial Black, Arial, sans-serif" font-size="48" font-weight="900" text-anchor="middle">COUNTRY + SCORE PREDICTION</text>
    <rect x="1060" y="205" width="600" height="520" fill="#ffffff" opacity="0.06" stroke="#ffffff" stroke-opacity="0.18"/>
    <text x="1360" y="360" fill="#ffffff" font-family="Arial Black, Arial, sans-serif" font-size="48" font-weight="900" text-anchor="middle">USA</text>
    <text x="1360" y="500" fill="#ffffff" font-family="Arial Black, Arial, sans-serif" font-size="80" font-weight="900" text-anchor="middle">VS</text>
    <text x="1360" y="640" fill="#ffffff" font-family="Arial Black, Arial, sans-serif" font-size="48" font-weight="900" text-anchor="middle">AUS</text>
    <text x="80" y="978" fill="#c9d4e8" font-family="Arial, sans-serif" font-size="34" font-weight="800">Subscribe for every World Cup watchalong on Kickoff Room Live.</text>
</svg>
