<?xml version="1.0" encoding="UTF-8"?>
<svg xmlns="http://www.w3.org/2000/svg" width="1920" height="1080" viewBox="0 0 1920 1080">
  
    
  
  <defs>
    <linearGradient id="bg" x1="0" x2="1" y1="0" y2="1">
      <stop offset="0" stop-color="#050814"/>
      <stop offset="0.48" stop-color="#0d1529"/>
      <stop offset="1" stop-color="#030610"/>
    </linearGradient>
    <radialGradient id="homeGlow" cx="17%" cy="28%" r="58%">
      <stop offset="0" stop-color="#3c3b6e" stop-opacity="0.58"/>
      <stop offset="1" stop-color="#3c3b6e" stop-opacity="0"/>
    </radialGradient>
    <radialGradient id="awayGlow" cx="86%" cy="20%" r="58%">
      <stop offset="0" stop-color="#ffcd00" stop-opacity="0.56"/>
      <stop offset="1" stop-color="#ffcd00" stop-opacity="0"/>
    </radialGradient>
  </defs>
  <rect width="1920" height="1080" fill="url(#bg)"/>
  <rect width="1920" height="1080" fill="url(#homeGlow)"/>
  <rect width="1920" height="1080" fill="url(#awayGlow)"/>
  <g opacity="0.09" stroke="#ffffff" stroke-width="2">
    <path d="M0 0 V1080"/><path d="M64 0 V1080"/><path d="M128 0 V1080"/><path d="M192 0 V1080"/><path d="M256 0 V1080"/><path d="M320 0 V1080"/><path d="M384 0 V1080"/><path d="M448 0 V1080"/><path d="M512 0 V1080"/><path d="M576 0 V1080"/><path d="M640 0 V1080"/><path d="M704 0 V1080"/><path d="M768 0 V1080"/><path d="M832 0 V1080"/><path d="M896 0 V1080"/><path d="M960 0 V1080"/><path d="M1024 0 V1080"/><path d="M1088 0 V1080"/><path d="M1152 0 V1080"/><path d="M1216 0 V1080"/><path d="M1280 0 V1080"/><path d="M1344 0 V1080"/><path d="M1408 0 V1080"/><path d="M1472 0 V1080"/><path d="M1536 0 V1080"/><path d="M1600 0 V1080"/><path d="M1664 0 V1080"/><path d="M1728 0 V1080"/><path d="M1792 0 V1080"/><path d="M1856 0 V1080"/><path d="M1920 0 V1080"/>
    <path d="M0 0 H1920"/><path d="M0 64 H1920"/><path d="M0 128 H1920"/><path d="M0 192 H1920"/><path d="M0 256 H1920"/><path d="M0 320 H1920"/><path d="M0 384 H1920"/><path d="M0 448 H1920"/><path d="M0 512 H1920"/><path d="M0 576 H1920"/><path d="M0 640 H1920"/><path d="M0 704 H1920"/><path d="M0 768 H1920"/><path d="M0 832 H1920"/><path d="M0 896 H1920"/><path d="M0 960 H1920"/><path d="M0 1024 H1920"/><path d="M0 1088 H1920"/>
  </g>
  <g opacity="0.16" stroke="#ffffff" stroke-width="4">
    <path d="M-180 980 L740 60"/>
    <path d="M-40 1088 L870 178"/>
    <path d="M1060 1120 L1940 240"/>
    <path d="M1190 1140 L2040 290"/>
  </g>
  <rect x="44" y="44" width="1832" height="992" fill="none" stroke="#ffffff" stroke-opacity="0.12"/>
    <rect x="80" y="86" width="246" height="92" fill="#ff3454"/>
    <text x="124" y="150" fill="#ffffff" font-family="Arial Black, Arial, sans-serif" font-size="54" font-weight="900">LIVE</text>
    <text x="80" y="320" fill="#ffffff" font-family="Arial Black, Arial, sans-serif" font-size="118" font-weight="900">WORLD CUP</text>
<text x="80" y="452.16" fill="#ffffff" font-family="Arial Black, Arial, sans-serif" font-size="118" font-weight="900">WATCHALONG</text>
    <rect x="80" y="572" width="910" height="4" fill="#21d4a3"/>
    <rect x="80" y="655" width="36" height="102" fill="#3c3b6e"/>
    <rect x="80" y="815" width="36" height="102" fill="#ffcd00"/>
    <text x="144" y="738" fill="#ffffff" font-family="Arial Black, Arial, sans-serif" font-size="82" font-weight="900">UNITED STATES</text>
    <text x="144" y="898" fill="#ffffff" font-family="Arial Black, Arial, sans-serif" font-size="82" font-weight="900">AUSTRALIA</text>
    <text x="80" y="998" fill="#ffbf3f" font-family="Arial Black, Arial, sans-serif" font-size="44" font-weight="900">12:30 AM IST, Saturday June 20</text>
    <rect x="1180" y="196" width="540" height="540" fill="#ffffff" opacity="0.055" stroke="#ffffff" stroke-opacity="0.18"/>
    <text x="1450" y="350" fill="#ffffff" font-family="Arial Black, Arial, sans-serif" font-size="48" font-weight="900" text-anchor="middle">ENGLISH</text>
    <text x="1450" y="430" fill="#ffffff" font-family="Arial Black, Arial, sans-serif" font-size="48" font-weight="900" text-anchor="middle">LIVE SCORE</text>
    <text x="1450" y="510" fill="#ffffff" font-family="Arial Black, Arial, sans-serif" font-size="48" font-weight="900" text-anchor="middle">REACTIONS</text>
    <text x="1450" y="590" fill="#ffffff" font-family="Arial Black, Arial, sans-serif" font-size="48" font-weight="900" text-anchor="middle">+ CHAT</text>
    <rect x="1264" y="650" width="372" height="74" fill="#21d4a3"/>
    <text x="1450" y="702" fill="#06130f" font-family="Arial Black, Arial, sans-serif" font-size="38" font-weight="900" text-anchor="middle">NO FOOTAGE</text>
</svg>
