<?xml version="1.0" encoding="UTF-8"?>
<svg xmlns="http://www.w3.org/2000/svg" width="1920" height="1080" viewBox="0 0 1920 1080">
  
    
  
  <defs>
    <linearGradient id="bg" x1="0" x2="1" y1="0" y2="1">
      <stop offset="0" stop-color="#050814"/>
      <stop offset="0.48" stop-color="#0d1529"/>
      <stop offset="1" stop-color="#030610"/>
    </linearGradient>
    <radialGradient id="homeGlow" cx="17%" cy="28%" r="58%">
      <stop offset="0" stop-color="#3c3b6e" stop-opacity="0.58"/>
      <stop offset="1" stop-color="#3c3b6e" stop-opacity="0"/>
    </radialGradient>
    <radialGradient id="awayGlow" cx="86%" cy="20%" r="58%">
      <stop offset="0" stop-color="#ffcd00" stop-opacity="0.56"/>
      <stop offset="1" stop-color="#ffcd00" stop-opacity="0"/>
    </radialGradient>
  </defs>
  <rect width="1920" height="1080" fill="url(#bg)"/>
  <rect width="1920" height="1080" fill="url(#homeGlow)"/>
  <rect width="1920" height="1080" fill="url(#awayGlow)"/>
  <g opacity="0.09" stroke="#ffffff" stroke-width="2">
    <path d="M0 0 V1080"/><path d="M64 0 V1080"/><path d="M128 0 V1080"/><path d="M192 0 V1080"/><path d="M256 0 V1080"/><path d="M320 0 V1080"/><path d="M384 0 V1080"/><path d="M448 0 V1080"/><path d="M512 0 V1080"/><path d="M576 0 V1080"/><path d="M640 0 V1080"/><path d="M704 0 V1080"/><path d="M768 0 V1080"/><path d="M832 0 V1080"/><path d="M896 0 V1080"/><path d="M960 0 V1080"/><path d="M1024 0 V1080"/><path d="M1088 0 V1080"/><path d="M1152 0 V1080"/><path d="M1216 0 V1080"/><path d="M1280 0 V1080"/><path d="M1344 0 V1080"/><path d="M1408 0 V1080"/><path d="M1472 0 V1080"/><path d="M1536 0 V1080"/><path d="M1600 0 V1080"/><path d="M1664 0 V1080"/><path d="M1728 0 V1080"/><path d="M1792 0 V1080"/><path d="M1856 0 V1080"/><path d="M1920 0 V1080"/>
    <path d="M0 0 H1920"/><path d="M0 64 H1920"/><path d="M0 128 H1920"/><path d="M0 192 H1920"/><path d="M0 256 H1920"/><path d="M0 320 H1920"/><path d="M0 384 H1920"/><path d="M0 448 H1920"/><path d="M0 512 H1920"/><path d="M0 576 H1920"/><path d="M0 640 H1920"/><path d="M0 704 H1920"/><path d="M0 768 H1920"/><path d="M0 832 H1920"/><path d="M0 896 H1920"/><path d="M0 960 H1920"/><path d="M0 1024 H1920"/><path d="M0 1088 H1920"/>
  </g>
  <g opacity="0.16" stroke="#ffffff" stroke-width="4">
    <path d="M-180 980 L740 60"/>
    <path d="M-40 1088 L870 178"/>
    <path d="M1060 1120 L1940 240"/>
    <path d="M1190 1140 L2040 290"/>
  </g>
  <rect x="44" y="44" width="1832" height="992" fill="none" stroke="#ffffff" stroke-opacity="0.12"/>
    <text x="80" y="150" fill="#21d4a3" font-family="Arial Black, Arial, sans-serif" font-size="32" font-weight="900">TACTICAL ROOM</text>
    <text x="80" y="235" fill="#ffffff" font-family="Arial Black, Arial, sans-serif" font-size="58" font-weight="900">UNITED STATES vs</text>
<text x="80" y="299.96000000000004" fill="#ffffff" font-family="Arial Black, Arial, sans-serif" font-size="58" font-weight="900">AUSTRALIA</text>
    
  <g>
    <rect x="900" y="172" width="820" height="560" fill="#0d4a3f" stroke="#ffffff" stroke-opacity="0.34" stroke-width="3"/>
    <g opacity="0.22">
      <rect x="900" y="172" width="117.14285714285714" height="560" fill="#ffffff" opacity="0.08"/><rect x="1017.1428571428571" y="172" width="117.14285714285714" height="560" fill="#21d4a3" opacity="0.22"/><rect x="1134.2857142857142" y="172" width="117.14285714285714" height="560" fill="#ffffff" opacity="0.08"/><rect x="1251.4285714285716" y="172" width="117.14285714285714" height="560" fill="#21d4a3" opacity="0.22"/><rect x="1368.5714285714284" y="172" width="117.14285714285714" height="560" fill="#ffffff" opacity="0.08"/><rect x="1485.7142857142858" y="172" width="117.14285714285714" height="560" fill="#21d4a3" opacity="0.22"/><rect x="1602.857142857143" y="172" width="117.14285714285714" height="560" fill="#ffffff" opacity="0.08"/>
    </g>
    <path d="M1310 172 V732" stroke="#ffffff" stroke-opacity="0.38" stroke-width="3"/>
    <circle cx="1310" cy="452" r="76" fill="none" stroke="#ffffff" stroke-opacity="0.38" stroke-width="3"/>
    <rect x="900" y="312" width="123" height="280" fill="none" stroke="#ffffff" stroke-opacity="0.35" stroke-width="3"/>
    <rect x="1597" y="312" width="123" height="280" fill="none" stroke="#ffffff" stroke-opacity="0.35" stroke-width="3"/>
    <path d="M1050 332 C1230 297, 1410 292, 1575 342" stroke="#ffbf3f" stroke-opacity="0.75" stroke-width="8" fill="none"/>
    <path d="M1070 512 C1250 457, 1440 502, 1590 442" stroke="#21d4a3" stroke-opacity="0.7" stroke-width="8" fill="none"/>
    <circle cx="1110" cy="337" r="20" fill="#3c3b6e" stroke="#ffffff" stroke-width="6"/><circle cx="1255" cy="447" r="20" fill="#3c3b6e" stroke="#ffffff" stroke-width="6"/><circle cx="1370" cy="362" r="20" fill="#3c3b6e" stroke="#ffffff" stroke-width="6"/><circle cx="1520" cy="492" r="20" fill="#ffcd00" stroke="#ffffff" stroke-width="6"/><circle cx="1605" cy="352" r="20" fill="#ffcd00" stroke="#ffffff" stroke-width="6"/><circle cx="1435" cy="457" r="20" fill="#ffcd00" stroke="#ffffff" stroke-width="6"/>
    <circle cx="1400" cy="424" r="13" fill="#ffffff"/>
  </g>
    <rect x="80" y="405" width="650" height="350" fill="#000000" opacity="0.36" stroke="#ffffff" stroke-opacity="0.16"/>
    <text x="120" y="492" fill="#ffbf3f" font-family="Arial Black, Arial, sans-serif" font-size="38" font-weight="900">KEY BATTLE</text>
    <text x="120" y="570" fill="#ffffff" font-family="Arial Black, Arial, sans-serif" font-size="46" font-weight="900">USA&apos;s midfield press vs Australia&apos;s</text>
<text x="120" y="621.52" fill="#ffffff" font-family="Arial Black, Arial, sans-serif" font-size="46" font-weight="900">vertical balls into space</text>
    <text x="80" y="982" fill="#c9d4e8" font-family="Arial, sans-serif" font-size="34" font-weight="800">Original animated graphics. No official footage. No broadcast audio.</text>
</svg>
